<svg t="1735091449643" class="icon" viewBox="0 0 1024 1024" version="1.1"
    xmlns="http://www.w3.org/2000/svg" p-id="16502" width="200" height="200">
    <path
        d="M435.2 243.2c4.266667 12.8 12.8 21.333333 21.333333 25.6 12.8 4.266667 25.6 0 34.133334-8.533333 8.533333-8.533333 12.8-21.333333 8.533333-34.133334L452.266667 25.6c0-8.533333-8.533333-17.066667-17.066667-21.333333 0-4.266667-8.533333-4.266667-21.333333-4.266667L217.6 46.933333c-12.8 4.266667-21.333333 12.8-25.6 21.333334-4.266667 12.8 0 25.6 8.533333 34.133333 8.533333 8.533333 21.333333 12.8 34.133334 8.533333L345.6 85.333333l-341.333333 546.133334c-4.266667 8.533333-4.266667 21.333333 0 34.133333 4.266667 12.8 17.066667 17.066667 29.866666 17.066667 12.8 0 25.6-4.266667 29.866667-17.066667L409.6 115.2l25.6 128zM972.8 145.066667H810.666667c-17.066667 0-38.4 8.533333-46.933334 25.6L554.666667 584.533333l-123.733334-110.933333c0-4.266667 0-4.266667-4.266666-4.266667-25.6-12.8-55.466667-4.266667-68.266667 17.066667L81.066667 947.2c-4.266667 8.533333-8.533333 17.066667-8.533334 25.6 0 12.8 4.266667 25.6 12.8 34.133333 12.8 12.8 25.6 17.066667 38.4 17.066667h849.066667c12.8 0 25.6-4.266667 34.133333-12.8 8.533333-8.533333 12.8-21.333333 12.8-34.133333V196.266667c4.266667-29.866667-17.066667-51.2-46.933333-51.2z m-21.333333 806.4H162.133333l243.2-409.6 123.733334 110.933333c12.8 8.533333 25.6 12.8 42.666666 12.8 17.066667-4.266667 29.866667-12.8 34.133334-25.6l213.333333-426.666667h128v738.133334z"
        p-id="16503" fill="#515151"></path>
</svg>