<svg t="1735895528316" class="icon" viewBox="0 0 1024 1024" version="1.1"
    xmlns="http://www.w3.org/2000/svg" p-id="10151" width="200" height="200">
    <path
        d="M1.060571 950.938287l-0.979428-877.714276C0.036571 32.828582 32.747428 0.045726 73.142856 0.000011a73.142856 73.142856 0 0 1 0.081143 0H950.857132c40.395428 0 73.142856 32.747428 73.142857 73.142857v877.714276c0 40.395428-32.747428 73.142856-73.142857 73.142856H74.203428c-40.364571 0-73.098285-32.697142-73.142857-73.061713z"
        fill="#666666" p-id="10152"></path>
    <path
        d="M260.571426 374.85715c-63.117714 0-114.285713-51.167999-114.285713-114.285713s51.167999-114.285713 114.285713-114.285713 114.285713 51.167999 114.285713 114.285713-51.167999 114.285713-114.285713 114.285713z m420.838852-145.10057c28.609143-27.915428 74.330285-27.693714 102.667428 0.498286l163.445712 162.605712c22.437714 22.322285 27.972571 56.543999 13.715428 84.8L878.851419 640.948576A73.142856 73.142856 0 0 1 813.550848 681.142861h-162.86857a73.142856 73.142856 0 0 1-65.45257-40.494857l-82.558856-165.508569c-14.188571-28.445714-8.380571-62.799999 14.370285-84.998856l164.369141-160.383999zM92.10057 457.242292c21.422857-21.422857 56.156571-21.422857 77.579428 0l399.211424 399.212567c21.424 21.422857 21.424 56.156571 0 77.580571-21.422857 21.422857-56.156571 21.422857-77.579427 0L92.10057 534.822863c-21.424-21.422857-21.424-56.156571 0-77.579428z"
        fill="#cdcdcd" fill-opacity=".603" p-id="10153"
        data-spm-anchor-id="a313x.search_index.0.i5.21543a81YVUb9D" class="selected"></path>
    <path
        d="M260.571426 274.285723c-7.573714 0-13.714286-6.140571-13.714286-13.714286s6.140571-13.714286 13.714286-13.714285 13.714286 6.140571 13.714285 13.714285-6.140571 13.714286-13.714285 13.714286z m471.428566 20.571428L877.714276 440.000007l-73.142856 145.142855H658.285707l-73.142856-146.813713L731.999992 294.857151zM129.697141 495.411434c5.356571-5.355429 14.04-5.355429 19.394286 0l383.051424 383.050282c5.355429 5.355429 5.355429 14.038857 0 19.394285-5.356571 5.356571-14.04 5.356571-19.395428 0L129.697141 514.806863c-5.355429-5.355429-5.355429-14.038857 0-19.394286z"
        fill="#EFEFEF" p-id="10154"></path>
</svg>