<svg t="1733921964811" class="icon" viewBox="0 0 1024 1024" version="1.1"
    xmlns="http://www.w3.org/2000/svg" p-id="2702" width="200" height="200">
    <path
        d="M822.53543091 201.46456909c18.53942873 18.53942873 18.53942873 46.34857177 0 60.25314332L572.25314331 512l250.2822876 250.28228759c18.53942873 18.53942873 18.53942873 46.34857177 0 60.25314332-18.53942873 18.53942873-46.34857177 18.53942873-60.25314332 0L512 572.25314331l-250.28228759 250.2822876c-18.53942873 18.53942873-46.34857177 18.53942873-60.25314332 0-18.53942873-18.53942873-18.53942873-46.34857177 0-60.25314332L451.74685669 512 201.46456909 261.71771241c-18.53942873-18.53942873-18.53942873-46.34857177 0-60.25314332s46.34857177-18.53942873 60.25314332 0L512 451.74685669l250.28228759-250.2822876C776.18685913 182.92514038 808.63085938 182.92514038 822.53543091 201.46456909z"
        p-id="2703" fill="#e6e6e6"></path>
</svg>