<svg t="1735192203194" class="icon" viewBox="0 0 1024 1024" version="1.1"
    xmlns="http://www.w3.org/2000/svg" p-id="8091" width="200" height="200">
    <path
        d="M748.747962 1024c-162.412375 0-351.786826-80.886226-418.978707-112.285099l-2.730337-0.682584C147.903231 855.401706 34.295625 769.054806 6.992257 668.373638c-21.501402-79.179766 8.873594-164.161497 90.058452-252.556149 4.095505-4.436797 12.9691-12.286515 37.883422-34.470502 57.678364-51.193814 233.358469-207.164301 252.812119-254.56124C422.899335 42.4866 516.413369-13.144012 596.275719 2.896717c39.589883 7.849718 131.013503 45.733141 131.013502 228.665703 0 199.655875 158.700824 349.824396 226.916581 405.412346a184.511038 184.511038 0 0 1 66.893251 115.015435c9.556179 61.773869 5.119381 175.082844-129.690996 242.999971-41.594974 20.818818-90.741035 29.009828-142.617434 29.009828z m-601.527316-561.766787c-64.162914 69.964879-89.034575 133.103917-74.060384 188.393236 20.477526 76.108137 120.476109 147.438185 274.31352 195.219078 6.527211 2.047753 10.622716 3.412921 11.646593 4.095505 58.019656 26.962075 354.517163 158.018239 501.571394 83.957855 73.3778-36.859546 104.734011-94.53791 92.788788-171.669923a117.745772 117.745772 0 0 0-42.32022-72.353924c-75.724183-61.432577-252.129534-229.348287-252.129534-458.355282 0-93.13008-27.64466-151.874982-76.108137-161.729791-48.079524-9.556179-109.853393 29.35112-132.037379 83.275271-22.525278 54.222781-143.300018 166.166588-270.559307 279.134271-17.405897 15.699436-29.692412 26.620783-33.105334 30.033704z"
        p-id="8092" fill="#515151"></path>
    <path
        d="M632.964619 853.353953c-95.561786 0-204.775256-44.87991-256.651655-69.111649-79.606381-24.487708-178.62375-71.287386-200.93572-153.752088-13.992976-51.876398 5.119381-106.653779 56.697149-162.668344 1.919768-2.218399 10.836024-10.196101 23.890447-21.672048 114.631482-101.87569 144.537202-137.199422 149.315291-149.315292 23.549154-56.313195 84.043178-92.319511 138.521928-81.483487 26.450137 5.418012 88.181345 30.247012 88.181345 148.973999 0 115.612697 92.660803 203.154119 132.463994 235.619529 23.890447 19.410988 39.80319 46.501048 44.282649 76.364106 10.793362 69.452941-19.453649 125.808798-84.38447 158.274209-26.748768 13.353053-58.275625 18.771065-91.380958 18.771065z m-354.090547-342.230647c-35.665024 39.163268-49.999292 73.548446-42.021589 102.814243 11.475947 42.021589 69.111649 82.166072 157.932916 109.853393 4.778089 1.578476 7.636411 2.559691 8.276333 2.858321 94.281941 43.941357 227.641827 83.403255 292.91394 50.937845 40.101821-20.050911 56.355857-49.999292 49.999292-91.72225a59.427486 59.427486 0 0 0-21.629387-36.603577c-46.84234-38.182053-156.05581-142.276142-156.05581-284.893575 0-50.340584-13.353053-81.82478-36.902207-86.304239-23.890447-4.778089-55.715934 15.912744-67.191881 43.301435-13.694345 32.806703-76.108137 92.660803-165.91062 172.224523-9.854809 8.617625-16.851297 14.974191-19.410987 17.491219z"
        p-id="8093" fill="#515151"></path>
    <path
        d="M548.708133 725.369418c-39.675206 0-83.189948-16.382021-110.91993-29.009828-52.900275-16.680651-85.024393-42.874819-93.855326-75.937491-5.034058-18.89905-4.436797-49.188723 27.388691-83.829871 0.981215-0.981215 5.07672-4.735428 11.049331-10.110778 41.594974-37.200838 53.881489-50.767199 57.038441-55.801257 12.286515-29.607089 46.28774-48.847431 76.534752-42.832158 11.945223 2.517029 51.023168 15.102175 51.023168 79.094443 0 39.419237 33.105333 70.604802 47.268955 81.910102 13.225069 10.750701 22.056002 26.194168 24.871662 42.917481 5.673981 35.920993-11.00667 67.405189-44.367972 84.128501a106.440472 106.440472 0 0 1-46.031772 9.470856z m-131.696086-145.60374c-9.129564 10.068117-13.864991 19.19768-12.585146 24.2744 1.578476 5.972612 14.504914 20.477526 52.303013 32.124119l5.972612 2.218398c43.514742 20.178895 87.242791 29.009828 103.326181 20.776157 10.409409-5.034058 11.646593-10.366747 10.409409-18.259127a5.972612 5.972612 0 0 0-2.218399-3.455583c-21.117448-17.363235-70.56214-64.63219-70.56214-131.141487 0-8.19101-0.938553-13.225069-1.877107-16.08339a12.71313 12.71313 0 0 0-5.076719 5.673981c-6.271242 15.144837-24.530369 34.683809-72.737878 77.217336a105.971195 105.971195 0 0 1-6.953826 6.655196z"
        p-id="8094" fill="#515151"></path>
</svg>