<svg t="1736123882951" class="icon" viewBox="0 0 1024 1024" version="1.1"
    xmlns="http://www.w3.org/2000/svg" p-id="4302" width="200" height="200">
    <path
        d="M32.029998 1023.936004a31.998 31.998 0 0 1-29.694144-43.901256l255.984001-639.960003a31.998 31.998 0 0 1 56.31648-5.75964l228.721705 343.018562 233.585401-367.20905A31.870008 31.870008 0 0 1 767.984001 287.982001v-63.996a31.998 31.998 0 1 1 63.996-0.191988L964.96369 14.911068c17.150928-27.006312 58.940316-14.847072 58.940316 17.150928V991.938004a31.998 31.998 0 0 1-31.998 31.998H32.029998zM384.008 553.629398L295.053559 420.32573 79.259046 959.940004H384.008V553.565402v0.063996z m575.964002-411.878257l-127.992001 201.139428V959.940004h127.992001V141.751141zM416.006 319.980001a31.998 31.998 0 0 1 31.998 31.998v63.996001a31.998 31.998 0 1 1-63.996 0v-63.996001a31.998 31.998 0 0 1 31.998-31.998z m0-191.988001a31.998 31.998 0 0 1 31.998 31.998001v63.996a31.998 31.998 0 1 1-63.996 0v-63.996a31.998 31.998 0 0 1 31.998-31.998001z m383.976001-127.992a31.998 31.998 0 0 1 31.998 31.998v63.996a31.998 31.998 0 0 1-63.996 0v-63.996a31.998 31.998 0 0 1 31.998-31.998z m-319.980001 0a31.998 31.998 0 0 1 0 63.996h-63.996a31.998 31.998 0 0 1 0-63.996h63.996z m191.988001 0a31.998 31.998 0 1 1 0 63.996h-63.996001a31.998 31.998 0 0 1 0-63.996h63.996001z"
        fill="#707070" p-id="4303"></path>
</svg>