<svg t="1736837561347" class="icon" viewBox="0 0 1105 1024" version="1.1" xmlns="http://www.w3.org/2000/svg" p-id="4301" width="200" height="200"><path d="M541.365191 724.443798c-24.428606 0-47.530667-7.726545-66.808242-22.348283l-39.252041-29.83305c-7.409778-5.687596-16.686545-8.822949-26.115879-8.82295a43.535515 43.535515 0 0 0-26.212848 8.82295l-39.389091 29.827878c-19.378424 14.595879-42.458505 22.313374-66.742303 22.313374-24.277333 0-47.358707-7.717495-66.752646-22.323717l-39.373576-29.822707c-7.403313-5.682424-16.681374-8.817778-26.110707-8.817778a43.553616 43.553616 0 0 0-26.216727 8.828121l-51.444364 38.979233a33.268364 33.268364 0 0 1-20.227879 6.808565c-10.616242 0-20.379152-4.848485-26.777859-13.297777-11.16703-14.753616-8.257939-35.838707 6.490506-47.005738l51.458585-38.994747c19.384889-14.595879 42.46497-22.313374 66.742303-22.313374 24.278626 0 47.358707 7.717495 66.757819 22.323717l39.364525 29.827879c7.424 5.621657 16.711111 8.716929 26.161131 8.716929s18.742303-3.095273 26.161131-8.716929l39.394263-29.838222c19.237495-14.626909 42.287838-22.363798 66.65697-22.363798 24.044606 0 47.772444 7.945051 66.817293 22.363798l39.389091 29.838222c7.424 5.621657 16.717576 8.716929 26.162424 8.716929 9.448727 0 18.742303-3.095273 26.161131-8.716929l39.389091-29.838222c19.039677-14.418747 42.772687-22.363798 66.813414-22.363798 24.02004 0 47.696162 7.939879 66.650505 22.358626l39.409778 29.843394c7.399434 5.687596 16.676202 8.822949 26.105535 8.822949a43.580768 43.580768 0 0 0 26.223192-8.828121l39.373576-29.83305c19.383596-14.595879 42.463677-22.313374 66.742303-22.313374 24.282505 0 47.358707 7.717495 66.752647 22.323717l39.373575 29.827879a33.286465 33.286465 0 0 1 12.969374 22.191838 33.199838 33.199838 0 0 1-6.586182 24.798384c-6.414222 8.46998-16.175838 13.318465-26.792081 13.318465a33.277414 33.277414 0 0 1-20.23305-6.808566l-39.383919-29.838222c-7.403313-5.682424-16.681374-8.817778-26.110707-8.817778a43.52 43.52 0 0 0-26.216728 8.828121l-39.38909 29.822707c-19.383596 14.595879-42.459798 22.313374-66.742303 22.313374-24.278626 0-47.358707-7.717495-66.752647-22.323717l-39.368404-29.822707a43.318303 43.318303 0 0 0-26.157253-8.716929 43.309253 43.309253 0 0 0-26.136565 8.69107l-39.413657 29.864081c-19.287919 14.621737-42.388687 22.348283-66.813414 22.348283z m-13.136162 173.985616c-24.419556 0-47.520323-7.722667-66.80307-22.344404l-39.252041-29.83305c-7.409778-5.686303-16.687838-8.828121-26.117171-8.828122a43.55103 43.55103 0 0 0-26.216728 8.828122l-39.383919 29.83305c-19.383596 14.595879-42.459798 22.318545-66.737131 22.318546s-47.363879-7.722667-66.76299-22.328889l-39.368404-29.827879c-7.404606-5.686303-16.681374-8.822949-26.110707-8.82295a43.56396 43.56396 0 0 0-26.21802 8.828122l-51.449536 38.984404a33.245091 33.245091 0 0 1-20.221414 6.803394c-10.621414 0-20.384323-4.848485-26.78303-13.297778-11.172202-14.747152-8.257939-35.838707 6.494384-47.01996l51.449535-38.975353c19.383596-14.601051 42.46497-22.317253 66.742303-22.317253 24.278626 0 47.363879 7.721374 66.757818 22.327596l39.373576 29.822707c7.425293 5.626828 16.717576 8.723394 26.157253 8.723394 9.443556 0 18.737131-3.096566 26.161131-8.723394l39.394263-29.83305c18.964687-14.423919 42.640808-22.363798 66.66602-22.363798 24.040727 0 47.768566 7.939879 66.813414 22.363798l39.389091 29.83305c7.424 5.626828 16.717576 8.723394 26.161131 8.723394 9.444848 0 18.738424-3.096566 26.162424-8.723394l39.38392-29.83305c19.039677-14.423919 42.767515-22.363798 66.808242-22.363798 24.02004 0 47.701333 7.939879 66.66602 22.353454l39.399434 29.843394c7.403313 5.687596 16.681374 8.824242 26.110708 8.824243a43.55103 43.55103 0 0 0 26.216727-8.828122l39.374869-29.829171c19.388768-14.601051 42.463677-22.317253 66.747474-22.317253 24.277333 0 47.357414 7.721374 66.747475 22.327596l39.383919 29.822707a33.245091 33.245091 0 0 1 12.964202 22.18796c1.202424 8.86303-1.136485 17.676929-6.591353 24.807434-6.414222 8.46998-16.177131 13.318465-26.792081 13.318465a33.269657 33.269657 0 0 1-20.233051-6.808566l-39.383919-29.838222c-7.403313-5.686303-16.676202-8.822949-26.105535-8.82295a43.547152 43.547152 0 0 0-26.223192 8.828122l-39.382626 29.827878c-19.384889 14.601051-42.46497 22.318545-66.743596 22.318546-24.277333 0-47.362586-7.717495-66.756526-22.327596l-39.369697-29.824c-7.625697-5.70699-16.67103-8.722101-26.155959-8.722101-9.490101 0-18.530263 3.004768-26.131394 8.697535l-39.418828 29.862788c-19.287919 14.621737-42.388687 22.344404-66.813415 22.344404z m0 0" p-id="4302" fill="#707070"></path><path d="M505.362282 90.223192l600.418263 221.090909L995.968181 628.066263c-21.500121-7.580444-47.485414-10.904566-70.631434-13.838223l94.076121-263.065858-474.475313-174.792404-140.414707 442.020202c-28.625455 2.872889-57.368566 16.590869-87.443394 41.771959L505.362282 90.223192z m0 0" p-id="4303" fill="#707070"></path><path d="M576.594928 358.102626l23.455031-63.662545 92.11604 33.925172-23.45503 63.666424-92.116041-33.929051z m312.357495 42.700283l-23.439515 63.652202-92.121212-33.92 23.434344-63.650909 92.126383 33.918707z m-239.484121 46.414869l-23.444687 63.667717-92.11604-33.930343 23.443394-63.661253 92.117333 33.923879z m195.776647 66.500525l-23.438223 63.656081-92.112161-33.908364 23.439515-63.661252 92.110869 33.913535z m0 0" p-id="4304" fill="#707070"></path></svg>