<svg t="1736905353533" class="icon" viewBox="0 0 1024 1024" version="1.1"
    xmlns="http://www.w3.org/2000/svg" p-id="6131" width="200" height="200">
    <path
        d="M293.795739 910.351841c-0.613982-4.607939-0.459464-9.214854 0.767478-14.129784l0.613983-1.225918 98.115425-295.095336H239.906496c-3.379974 0-6.139825 0.454347-8.139362 1.381461-1.687429 0.765432-3.221361 1.993396-4.601798 3.685942l-30.251941 41.141943-0.305968 0.306991c-8.901723 11.673854-37.767086 21.655162-62.337642 23.030484-8.901723 0.465603-17.65609 0-25.330871-1.840925-10.595291-2.300388-19.342495-7.214294-24.871408-15.042571-5.066379-7.522309-6.913443-16.430171-4.300947-26.870943l0.153495-0.767478 30.551769-102.255715v-0.153495c1.074469-3.533469 1.692545-6.908326 1.692545-10.595291 0-3.531423-0.618076-7.060799-1.692545-10.592222v-0.153495L79.920054 398.918751l-0.153495-0.767478c-2.612496-10.440772-0.765432-19.346588 4.300947-26.714378 5.527889-7.984842 14.276116-12.897726 24.871408-15.201183 7.522309-1.687429 16.429148-2.303458 25.330871-1.687429 24.570556 1.380437 53.43592 11.362769 62.337642 23.030483l0.305968 0.306992 30.251941 40.993564c1.380437 1.689475 2.91437 2.91744 4.601798 3.683895 1.999536 0.92302 4.759388 1.383507 8.139362 1.383507h153.386129l-98.115425-294.943886-0.613983-1.383507c-1.226942-4.757341-1.381461-9.518775-0.767478-14.122621 0.767478-4.913907 2.614542-9.674317 5.527889-13.818699 3.074006-4.606915 7.060799-8.138338 11.975728-10.595291 4.606915-2.149962 9.521845-3.223408 14.895216-3.223408h60.797569c9.060335 0 17.502594 1.996466 25.028997 6.294344 7.368813 3.993956 13.663157 9.827813 18.883031 17.349098l0.460487 0.919951 187.929808 308.456617 0.306991 0.612959c0.91995 1.53598 1.840924 2.763945 3.074006 3.379974 1.380437 0.767478 3.527329 1.073446 6.29332 1.073446h211.574274c50.202278 0 81.986105 21.800472 96.263245 49.744861 5.988376 11.668737 8.753344 24.260495 8.599848 36.849183 0 12.74116-3.072982 25.177375-8.90684 36.846113-14.891122 29.324827-47.441404 52.513923-95.956253 52.513922H628.969805c-2.765991 0-4.913907 0.306991-6.293321 1.225919-1.233082 0.615006-2.306528 1.687429-3.074006 3.226478l-0.306991 0.613982-187.929808 308.451501-0.460487 0.91995c-5.220898 7.680921-11.514218 13.514778-18.883031 17.507711-7.526402 4.142335-15.968661 6.295367-25.028996 6.295367h-60.79757c-5.37337 0-10.2883-1.227965-14.895215-3.380997-4.91493-2.300388-8.901723-5.83488-11.975729-10.595291-2.91437-4.144382-4.761434-8.746181-5.528912-13.812559z m42.994124-12.896702h50.203302c2.306528 0 4.147452-0.306991 5.525842-1.079586 1.692545-0.91995 3.227501-2.453883 4.760411-4.601799l187.316849-307.842635c4.760411-8.140385 10.901259-14.12876 18.577063-18.423568 7.674781-4.146428 16.275653-6.146988 25.796475-6.146988h211.574273c31.165751 0 51.275725-13.355143 59.876596-30.245801 2.915394-5.987353 4.607939-12.434169 4.607939-18.882008 0.152472-6.294344-1.381461-12.436215-4.147452-18.116577-7.981772-15.509198-27.637399-27.483903-60.337083-27.483903H628.969805c-9.520822 0-18.121693-2.150985-25.796475-6.294344-7.675804-4.146428-13.816653-10.2883-18.577063-18.272119l-187.316849-307.994084c-1.53291-2.149962-3.067866-3.530399-4.760411-4.453419-1.379414-0.767478-3.219315-1.226942-5.525842-1.226942H336.789863l97.648799 293.560379c2.453883 5.067402 3.528353 10.2883 3.067866 15.508174-0.459464 6.295367-2.91437 11.975729-7.214295 17.043131-3.226478 3.990886-7.215318 6.907303-11.823256 9.058288-4.606915 1.99749-9.367326 3.070936-14.433705 3.070936H239.906496c-9.060335 0-17.348075-1.690498-25.028997-5.220898-7.828277-3.683895-14.430635-8.904793-19.804005-15.966614l-0.306991-0.309038-30.399297-41.14706v-0.153496c-3.072982-3.069912-17.809585-6.140848-32.397809-6.907303-3.839437-0.153496-7.674781-0.153496-10.901259 0.152472l28.251381 94.578887c2.146892 7.522309 3.379974 14.892145 3.379973 22.260958 0 7.36779-1.233082 14.74172-3.379973 22.264029l-28.251381 94.575816c3.226478 0.306991 7.061822 0.465603 11.055778 0.157589 14.74172-0.771571 29.784291-3.992933 32.397809-7.214294l30.245801-40.998681 0.306991-0.306991c5.37337-7.060799 11.974705-12.281696 19.804006-15.968662 7.680921-3.374857 15.968661-5.067402 25.028996-5.067402h164.128776c5.374393 0 10.440772 0.91995 14.895216 2.767015 5.681385 2.300388 10.2883 5.988376 13.663157 11.054754 3.379974 5.067402 5.221921 10.595291 5.221921 16.73614 0 4.606915-1.074469 9.367326-3.375881 14.12876L336.789863 897.455139z"
        fill="#707070" p-id="6132"></path>
</svg>