<svg t="1741310010013" class="icon" viewBox="0 0 1024 1024" version="1.1"
    xmlns="http://www.w3.org/2000/svg" p-id="5990" width="200" height="200">
    <path
        d="M57.6 364.8c57.6-134.4 147.2-160 339.2-153.6 192 6.4 147.2-128 281.6-147.2 153.6-25.6 320 51.2 300.8 332.8-38.4 659.2-262.4 313.6-422.4 499.2-172.8 198.4-435.2 64-371.2-128 25.6-83.2-204.8-243.2-128-403.2z"
        fill="#8a8a8a" opacity=".2" p-id="5991"></path>
    <path
        d="M185.6 428.8c44.8-83.2 108.8-96 243.2-89.6 140.8 6.4 108.8-76.8 204.8-89.6 108.8-12.8 230.4 32 217.6 204.8-25.6 403.2-192 192-300.8 300.8-121.6 121.6-313.6 38.4-268.8-76.8 12.8-51.2-147.2-153.6-96-249.6z"
        fill="#8a8a8a" opacity=".5" p-id="5992"></path>
    <path
        d="M352 480c19.2-32 57.6-38.4 128-38.4 76.8 0 57.6-32 108.8-38.4 57.6-6.4 121.6 12.8 115.2 89.6-12.8 179.2-96 83.2-160 134.4s-172.8 19.2-147.2-32c12.8-25.6-76.8-70.4-44.8-115.2z"
        fill="#8a8a8a" p-id="5993"></path>
</svg>