<svg t="1740102147821" class="icon" viewBox="0 0 1024 1024" version="1.1"
    xmlns="http://www.w3.org/2000/svg" p-id="3754" width="200" height="200">
    <path
        d="M512.32 734.187c-120.96 0-219.413-98.454-219.413-219.414S391.36 295.36 512.32 295.36c120.96 0 219.413 98.453 219.413 219.413S633.28 734.187 512.32 734.187z m0-370.56c-83.307 0-151.147 67.84-151.147 151.146S429.013 665.92 512.32 665.92s151.147-67.84 151.147-151.147-67.84-151.146-151.147-151.146z"
        p-id="3755" fill="#8a8a8a"></path>
    <path
        d="M460.587 514.773a51.733 51.733 0 1 0 103.466 0 51.733 51.733 0 1 0-103.466 0zM510.72 257.067c-18.88 0-34.133-15.254-34.133-34.134v-52.48c0-18.88 15.253-34.133 34.133-34.133s34.133 15.253 34.133 34.133v52.48c0 18.88-15.253 34.134-34.133 34.134zM258.773 404.373c-5.76 0-11.626-1.493-17.066-4.586l-45.44-26.24c-16.32-9.387-21.867-30.294-12.48-46.614s30.293-21.866 46.613-12.48l45.44 26.24c16.32 9.387 21.867 30.294 12.48 46.614-6.293 10.88-17.813 17.066-29.547 17.066z m-43.84 318.08c-11.84 0-23.253-6.08-29.546-17.066-9.387-16.32-3.84-37.227 12.48-46.614l45.44-26.24c16.32-9.386 37.226-3.84 46.613 12.48s3.84 37.227-12.48 46.614L232 717.867a34.174 34.174 0 0 1-17.067 4.586zM513.92 893.227c-18.88 0-34.133-15.254-34.133-34.134v-52.48c0-18.88 15.253-34.133 34.133-34.133s34.133 15.253 34.133 34.133v52.48c0 18.774-15.253 34.134-34.133 34.134zM811.307 719.68c-5.76 0-11.627-1.493-17.067-4.587l-45.44-26.24c-16.32-9.386-21.867-30.293-12.48-46.613s30.293-21.867 46.613-12.48l45.44 26.24c16.32 9.387 21.867 30.293 12.48 46.613-6.293 10.88-17.813 17.067-29.546 17.067z m-47.04-318.08c-11.84 0-23.254-6.08-29.547-17.067-9.387-16.32-3.84-37.226 12.48-46.613l45.44-26.24c16.32-9.387 37.227-3.84 46.613 12.48 9.387 16.32 3.84 37.227-12.48 46.613l-45.44 26.24c-5.44 3.094-11.306 4.587-17.066 4.587z"
        p-id="3756" fill="#8a8a8a"></path>
</svg>