<svg t="1736474924985" class="icon" viewBox="0 0 1380 1024" version="1.1"
    xmlns="http://www.w3.org/2000/svg" p-id="9005" width="200" height="200">
    <path
        d="M1252.975304 165.13113l-87.930434-87.930434a22.26087 22.26087 0 1 1 31.476869-31.47687l125.907478 125.907478a22.26087 22.26087 0 0 1 0 31.47687l-125.907478 125.952a22.26087 22.26087 0 1 1-31.476869-31.47687l87.930434-87.930434H129.113043l87.930435 87.930434a22.26087 22.26087 0 1 1-31.476869 31.47687L59.614609 203.108174a22.26087 22.26087 0 0 1 0-31.47687l125.952-125.907478a22.26087 22.26087 0 0 1 31.476869 31.47687L129.113043 165.13113h1123.862261z m-228.040347 500.869566h-44.52174v122.434782h-44.521739v-122.434782h-44.521739v122.434782h-44.521739v-122.434782h-44.521739v122.434782h-44.521739v-122.434782h-44.521739v211.478261h-44.52174v-211.478261h-44.521739v122.434782h-44.521739v-122.434782h-44.521739v122.434782h-44.521739v-122.434782h-44.521739v122.434782h-44.521739v-122.434782h-44.521739v122.434782h-44.52174v-122.434782h-44.521739v211.478261h-44.521739v-211.478261h-111.304348a11.130435 11.130435 0 0 0-11.130434 11.130434v267.130435c0 6.144 4.986435 11.130435 11.130434 11.130435h1157.565218a11.130435 11.130435 0 0 0 11.130435-11.130435v-267.130435a11.130435 11.130435 0 0 0-11.130435-11.130434h-111.304348v211.478261h-44.521739v-211.478261h-44.521739v122.434782h-44.521739v-122.434782z m244.869565-66.782609c43.052522 0 77.913043 34.860522 77.913043 77.913043v267.130435a77.913043 77.913043 0 0 1-77.913043 77.913044h-1157.565218a77.913043 77.913043 0 0 1-77.913043-77.913044v-267.130435c0-43.052522 34.905043-77.913043 77.913043-77.913043h1157.565218z"
        p-id="9006" fill="#707070"></path>
</svg>