<svg t="1736474849272" class="icon" viewBox="0 0 1024 1024" version="1.1" xmlns="http://www.w3.org/2000/svg" p-id="4340" width="200" height="200"><path d="M934 940.3h-94.8V903h57.5v-38.1H934v75.4z m-171 0h-76.2V903H763v37.3z m-152.4 0h-76.2V903h76.2v37.3z m-152.3 0h-76.2V903h76.2v37.3z m-152.3 0h-76.2V903H306v37.3z m-152.4 0H82.7v-42.6H120v5.2h33.6v37.4zM120 821.6H82.7v-76.2H120v76.2z m814-32.9h-37.3v-76.2H934v76.2zM120 669.2H82.7V593H120v76.2z m814-32.8h-37.3v-76.2H934v76.2zM120 516.9H82.7v-76.2H120v76.2zM934 484h-37.3v-76.2H934V484zM120 364.6H82.7v-76.2H120v76.2z m814-32.9h-37.3v-76.2H934v76.2zM120 212.2H82.7V136H120v76.2z m814-32.8h-37.3v-71.7h14.2V89H934v90.4z m-99.3-53.1h-76.2V89h76.2v37.3z m-152.4 0h-76.2V89h76.2v37.3z m-152.3 0h-76.2V89H530v37.3z m-152.4 0h-76.2V89h76.2v37.3z m-152.3 0h-76.2V89h76.2v37.3zM153.6 156.2H863v716.9H153.6z" p-id="4341" fill="#8a8a8a"></path></svg>