<svg t="1736474950117" class="icon" viewBox="0 0 1024 1024" version="1.1"
    xmlns="http://www.w3.org/2000/svg" p-id="12991" width="200" height="200">
    <path
        d="M661.504 129.536c0 16.384 7.168 31.232 18.944 40.96v682.496c-11.264 10.24-18.944 24.576-18.944 40.96 0 30.208 24.576 54.784 54.784 54.784 30.208 0 54.784-24.576 54.784-54.784 0-16.384-7.168-31.232-18.944-40.96V170.496c11.264-10.24 18.944-24.576 18.944-40.96 0-30.208-24.576-54.784-54.784-54.784-30.208 0-54.784 24.576-54.784 54.784zM253.44 76.288v870.4h251.904v-870.4H253.44z m102.912 763.904v51.2H253.44v-51.2h102.912z m57.344-117.76v51.2H253.44v-51.2h160.256z m-57.344-117.248v51.2H253.44v-51.2h102.912z m57.344-117.76v51.2H253.44v-51.2h160.256z m-57.344-117.76v51.2H253.44v-51.2h102.912z m57.344-117.248v51.2H253.44v-51.2h160.256z m-57.344-117.76v51.2H253.44v-51.2h102.912z"
        p-id="12992" fill="#8a8a8a"></path>
</svg>