<svg t="1734107431414" class="icon" viewBox="0 0 1024 1024" version="1.1"
    xmlns="http://www.w3.org/2000/svg" p-id="26382" width="200" height="200">
    <path
        d="M80.469333 94.592c8.874667 0 17.664 1.450667 26.026667 4.266667l6.144 2.432 168.192 73.301333 3.114667-1.28v81.706667a80.469333 80.469333 0 0 1-28.544-4.053334l-6.698667-2.56-168.234667-73.344v635.392l203.008 116.224 0.469334-0.213333v80.725333a80.469333 80.469333 0 0 1-33.962667-7.296l-6.485333-3.370666-203.008-116.181334a80.469333 80.469333 0 0 1-40.234667-63.232L0 810.453333V175.061333c0-44.458667 36.053333-80.469333 80.469333-80.469333zM605.866667 799.402667v85.973333l-279.253334 110.762667v-86.570667l270.848-107.392c2.773333-1.066667 5.546667-2.005333 8.405334-2.773333z m42.666666-756.138667l4.096 1.28 4.010667 1.450667 316.416 124.757333c28.672 11.349333 48.213333 37.973333 50.688 68.352l0.256 6.528V912.64a80.469333 80.469333 0 0 1-102.4 77.482667l-6.997333-2.346667-266.069334-102.528v-85.76l0.341334 0.085333 7.168 2.389334 287.488 110.677333V245.632L648.533333 129.28V43.264z m-143.232 520.106667a80.469333 80.469333 0 1 1 0 160.981333 80.469333 80.469333 0 0 1 0-160.938667z m241.493334-80.469334a80.469333 80.469333 0 1 1 0 160.981334 80.469333 80.469333 0 0 1 0-160.981334zM304.042667 321.962667a120.746667 120.746667 0 1 1 0 241.450666 120.746667 120.746667 0 0 1 0-241.493333z m281.685333 80.469333a40.234667 40.234667 0 1 1 0 80.469333 40.234667 40.234667 0 0 1 0-80.469333z m-20.096-201.216a60.373333 60.373333 0 1 1 0 120.746667 60.373333 60.373333 0 0 1 0-120.746667z m40.192-157.994667v86.229334L326.613333 242.858667V155.989333l270.250667-109.696c2.944-1.194667 5.973333-2.218667 9.002667-3.072z"
        p-id="26383" fill="#e6e6e6"></path>
</svg>