<svg t="1740385307681" class="icon" viewBox="0 0 1024 1024" version="1.1"
    xmlns="http://www.w3.org/2000/svg" p-id="5049" width="200" height="200">
    <path
        d="M946.8 801.5c-0.5 0.3-48.2 35-120.8 48.6-96.6 18.1-189.7-7.6-276.8-76.5-51.6-40.8-109.4-72.4-171.6-93.9-49.7-17.2-102.3-27.9-156.4-32-92.2-6.9-156.2 7.9-158.9 8.5l7.4 31.1c0.6-0.1 61.9-14.3 149.2-7.7 80.6 6.1 199.9 31.6 310.5 119.1 52.2 41.2 107.5 68.5 164.6 81 24.2 5.3 48.8 7.9 73.4 7.9 22 0 44.1-2.1 66.1-6.3 79.4-15.2 130.3-52.5 132.4-54.1l-19.1-25.7z"
        fill="#8a8a8a" p-id="5050"></path>
    <path
        d="M544.114948 485.597565a72.8 72.8 0 1 0 102.95295-102.956544 72.8 72.8 0 1 0-102.95295 102.956544Z"
        fill="#8a8a8a" p-id="5051"></path>
    <path d="M854.2 265.4m-56 0a56 56 0 1 0 112 0 56 56 0 1 0-112 0Z" fill="#8a8a8a" p-id="5052"></path>
    <path d="M923 527.3m-29.1 0a29.1 29.1 0 1 0 58.2 0 29.1 29.1 0 1 0-58.2 0Z" fill="#8a8a8a"
        p-id="5053"></path>
    <path d="M480.6 588.8m-21.5 0a21.5 21.5 0 1 0 43 0 21.5 21.5 0 1 0-43 0Z" fill="#8a8a8a"
        p-id="5054"></path>
    <path d="M120.9 352.2m-22.7 0a22.7 22.7 0 1 0 45.4 0 22.7 22.7 0 1 0-45.4 0Z" fill="#8a8a8a"
        p-id="5055"></path>
    <path d="M287.2 275.4m-44.7 0a44.7 44.7 0 1 0 89.4 0 44.7 44.7 0 1 0-89.4 0Z" fill="#8a8a8a"
        p-id="5056"></path>
    <path
        d="M263.570396 541.881735a79.9 79.9 0 1 0 112.993692-112.997636 79.9 79.9 0 1 0-112.993692 112.997636Z"
        fill="#8a8a8a" p-id="5057"></path>
    <path
        d="M759.125259 189.787411a19.3 19.3 0 1 0 14.77158-35.66175 19.3 19.3 0 1 0-14.77158 35.66175Z"
        fill="#8a8a8a" p-id="5058"></path>
    <path
        d="M750.199828 736.987975a55 55 0 1 0 107.055856-25.279313 55 55 0 1 0-107.055856 25.279313Z"
        fill="#8a8a8a" p-id="5059"></path>
    <path
        d="M668.779559 607.486531a32.7 32.7 0 1 0 46.243977-46.245591 32.7 32.7 0 1 0-46.243977 46.245591Z"
        fill="#8a8a8a" p-id="5060"></path>
    <path
        d="M165.389921 216.701398a29.4 29.4 0 1 0 58.041478-9.414183 29.4 29.4 0 1 0-58.041478 9.414183Z"
        fill="#8a8a8a" p-id="5061"></path>
    <path d="M660.132814 222.018818a18 18 0 1 0 25.4554-25.456288 18 18 0 1 0-25.4554 25.456288Z"
        fill="#8a8a8a" p-id="5062"></path>
    <path d="M612.6 661.9m-17 0a17 17 0 1 0 34 0 17 17 0 1 0-34 0Z" fill="#8a8a8a" p-id="5063"></path>
    <path
        d="M743.621235 471.319204a38.6 38.6 0 1 0 54.587691-54.589596 38.6 38.6 0 1 0-54.587691 54.589596Z"
        fill="#8a8a8a" p-id="5064"></path>
    <path d="M488.5 247.6m-47.7 0a47.7 47.7 0 1 0 95.4 0 47.7 47.7 0 1 0-95.4 0Z" fill="#8a8a8a"
        p-id="5065"></path>
</svg>