<svg t="1736987728441" class="icon" viewBox="0 0 1070 1024" version="1.1"
    xmlns="http://www.w3.org/2000/svg" p-id="4292" width="200" height="200">
    <path
        d="M942.638545 654.475636a23.458909 23.458909 0 0 1-21.131636 11.636364H140.567273a23.365818 23.365818 0 0 1-23.226182-24.064c0-13.265455 10.379636-23.598545 23.226182-24.017455l782.103272-0.418909a22.993455 22.993455 0 0 1 21.131637 11.636364 31.557818 31.557818 0 0 1-1.210182 25.227636zM220.16 736.488727a22.062545 22.062545 0 0 1 18.618182-9.495272h45.614545l-24.482909 43.473454-37.282909 66.280727-24.436364 43.52h-36.864a21.876364 21.876364 0 0 1-19.921454-11.636363 20.014545 20.014545 0 0 1 1.256727-22.341818l77.498182-109.800728z m91.508364 33.978182l24.482909-43.473454h72.471272l-86.574545 153.274181H249.530182l24.482909-43.52 37.701818-66.280727z m219.601454-43.473454l-86.574545 153.274181H373.853091l86.574545-153.274181h70.842182z m123.019637 0l-86.574546 153.274181h-71.261091l86.574546-153.274181h71.261091z m126.370909 0l-86.574546 153.274181h-74.193454l86.574545-153.274181h74.193455z m65.024 0c8.704 0 16.151273 4.561455 20.293818 11.589818l58.414545 109.800727a22.202182 22.202182 0 0 1-0.837818 21.504 22.760727 22.760727 0 0 1-19.456 10.379636h-157.835636l86.574545-153.274181h12.846546z"
        fill="#515151" p-id="4293"></path>
    <path
        d="M725.922909 398.708364l-190.184727 228.957091-190.789818-228.957091h380.974545zM607.418182 165.143273v233.565091H466.944V165.143273h140.474182z"
        fill="#515151" p-id="4294"></path>
</svg>