<svg t="1734275517667" class="icon" viewBox="0 0 1024 1024" version="1.1" xmlns="http://www.w3.org/2000/svg" p-id="1494" width="200" height="200"><path d="M272 928a80 80 0 1 1 0-160 80 80 0 0 1 0 160z m480 0a80 80 0 1 1 0-160 80 80 0 0 1 0 160z m-384-288a48 48 0 1 1 0-96 48 48 0 0 1 0 96z m288 0a48 48 0 1 1 0-96 48 48 0 0 1 0 96z m-512 64a48 48 0 1 1 0-96 48 48 0 0 1 0 96z m736 0a48 48 0 1 1 0-96 48 48 0 0 1 0 96zM224 512a32 32 0 1 1 0-64 32 32 0 0 1 0 64z m576 0a32 32 0 1 1 0-64 32 32 0 0 1 0 64z m-384-64a32 32 0 1 1 0-64 32 32 0 0 1 0 64z m192 0a32 32 0 1 1 0-64 32 32 0 0 1 0 64z m-160-128a32 32 0 1 1 0-64 32 32 0 0 1 0 64z m-160 64a32 32 0 1 1 0-64 32 32 0 0 1 0 64z m64-128a32 32 0 1 1 0-64 32 32 0 0 1 0 64z m320 0a32 32 0 1 1 0-64 32 32 0 0 1 0 64z m-48-96a16 16 0 1 1 0-32 16 16 0 0 1 0 32z m-224 0a16 16 0 1 1 0-32 16 16 0 0 1 0 32z m160 32a16 16 0 1 1 0-32 16 16 0 0 1 0 32z m-96 0a16 16 0 1 1 0-32 16 16 0 0 1 0 32z m112 128a32 32 0 1 1 0-64 32 32 0 0 1 0 64z m160 64a32 32 0 1 1 0-64 32 32 0 0 1 0 64z" fill="#2c2c2c" opacity=".3" p-id="1495"></path><path d="M272 896a80 80 0 1 1 0-160 80 80 0 0 1 0 160z m480 0a80 80 0 1 1 0-160 80 80 0 0 1 0 160z" fill="#2c2c2c" p-id="1496"></path><path d="M144 672a48 48 0 1 1 0-96 48 48 0 0 1 0 96z m736 0a48 48 0 1 1 0-96 48 48 0 0 1 0 96z" fill="#2c2c2c" p-id="1497"></path><path d="M368 608a48 48 0 1 1 0-96 48 48 0 0 1 0 96z m288 0a48 48 0 1 1 0-96 48 48 0 0 1 0 96zM224 480a32 32 0 1 1 0-64 32 32 0 0 1 0 64z m576 0a32 32 0 1 1 0-64 32 32 0 0 1 0 64z" fill="#2c2c2c" p-id="1498"></path><path d="M416 416a32 32 0 1 1 0-64 32 32 0 0 1 0 64z m192 0a32 32 0 1 1 0-64 32 32 0 0 1 0 64zM288 352a32 32 0 1 1 0-64 32 32 0 0 1 0 64z m448 0a32 32 0 1 1 0-64 32 32 0 0 1 0 64z" fill="#2c2c2c" p-id="1499"></path><path d="M448 288a32 32 0 1 1 0-64 32 32 0 0 1 0 64z m-96-64a32 32 0 1 1 0-64 32 32 0 0 1 0 64z m320 0a32 32 0 1 1 0-64 32 32 0 0 1 0 64z m-96 64a32 32 0 1 1 0-64 32 32 0 0 1 0 64z" fill="#2c2c2c" p-id="1500"></path><path d="M624 128a16 16 0 1 1 0-32 16 16 0 0 1 0 32z m-224 0a16 16 0 1 1 0-32 16 16 0 0 1 0 32z m160 32a16 16 0 1 1 0-32 16 16 0 0 1 0 32z m-96 0a16 16 0 1 1 0-32 16 16 0 0 1 0 32z" fill="#2c2c2c" p-id="1501"></path></svg>