<svg t="1735091383403" class="icon" viewBox="0 0 1316 1024" version="1.1"
    xmlns="http://www.w3.org/2000/svg" p-id="12501" width="200" height="200">
    <path
        d="M509.513 799.013L44.251 374.784l49.299-54.126 413.988 377.49-79.36-175.762 66.707-30.135 101.814 226.012a152.869 152.869 0 0 1 15.141-4.681V21.942h73.143v690.835c9.728 2.268 19.09 5.486 28.014 9.509L816.713 492.25l66.706 30.062-94.866 210.432 449.829-383.342 47.47 55.662-487.79 415.598a154.185 154.185 0 0 1-148.188 196.315 154.112 154.112 0 0 1-140.36-217.965z m-66.999-440.906l-65.243 33.061-115.2-226.89 65.243-33.06 115.2 226.89z m438.419-12.214L983.04 131.657l66.048 31.452-102.18 214.308-65.975-31.451z"
        p-id="12502" fill="#515151"></path>
</svg>