<svg t="1735091487727" class="icon" viewBox="0 0 1024 1024" version="1.1"
    xmlns="http://www.w3.org/2000/svg" p-id="20558" width="200" height="200">
    <path
        d="M645.04 301.04l58.56-48.8-188.16-69.2 34.16 197.6 58.56-48.88 208.08 249.68 36.88-30.72zM339.28 291.36c-5.84-6.88-15.12-9.68-23.84-7.6-4.24 0.96-8.08 3.2-11.12 6.16L190.48 380.8c-5.68 4.56-9.04 11.44-9.04 18.72l-0.16 387.28c0 6.4 2.56 12.48 7.04 16.96s10.64 7.04 16.96 7.04l520-0.56c9.36 0 17.84-5.44 21.76-13.92 3.92-8.48 2.56-18.4-3.44-25.6L339.28 291.36zM229.36 762.8l0.16-351.68 88.4-70.64L673.76 762.4l-444.4 0.4z"
        fill="#515151" p-id="20559"></path>
</svg>