<svg t="1734577790747" class="icon" viewBox="0 0 1024 1024" version="1.1" xmlns="http://www.w3.org/2000/svg" p-id="4752" width="200" height="200"><path d="M512 512c0-117.76-95.57-213.33-213.33-213.33S85.33 394.24 85.33 512s95.58 213.33 213.34 213.33S512 629.76 512 512z m-341.33 0c0-70.4 57.6-128 128-128s128 57.6 128 128-57.6 128-128 128-128-57.6-128-128zM896 512c0-166.4-67.84-317.44-177.07-426.67L505.6 298.67c54.61 54.61 88.75 130.13 88.75 213.33A300.87 300.87 0 0 1 506 725.33l213.36 213.34C828.16 829.44 896 678.4 896 512zM620 718.51a386.41 386.41 0 0 0-0.43-413.44l94.72-94.3c62.72 87.47 96.43 192 96.43 301.23S777 725.33 714.24 812.8z" p-id="4753" data-spm-anchor-id="a313x.search_index.0.i4.33a83a81jqQ3VI" class="selected" fill="#515151"></path></svg>